<svg xmlns="http://www.w3.org/2000/svg" viewBox="0 0 512 512" role="img" aria-labelledby="title desc">
  <title id="title">Slidinator</title>
  <desc id="desc">Stacked pharma training slides with a medical cross and sparkle.</desc>
  <rect width="512" height="512" rx="112" fill="#ecfdf5"/>
  <rect x="118" y="146" width="244" height="160" rx="26" fill="#ffffff" stroke="#047857" stroke-width="20"/>
  <rect x="150" y="196" width="88" height="16" rx="8" fill="#10b981"/>
  <rect x="150" y="232" width="150" height="14" rx="7" fill="#a7f3d0"/>
  <rect x="150" y="264" width="118" height="14" rx="7" fill="#a7f3d0"/>
  <path d="M342 204h34v-34h40v34h34v40h-34v34h-40v-34h-34z" fill="#047857"/>
  <rect x="154" y="328" width="244" height="28" rx="14" fill="#047857" opacity=".18"/>
  <rect x="184" y="374" width="182" height="22" rx="11" fill="#047857" opacity=".12"/>
  <path d="M112 346c32-8 56-32 64-64 8 32 32 56 64 64-32 8-56 32-64 64-8-32-32-56-64-64z" fill="#34d399"/>
</svg>
